# xmcd CD database file generated by OrangeCD 5.2
#
# Track frame offsets:
#	150
#	11157
#	32882
#	44535
#	55610
#	66300
#	83797
#	96210
#	106420
#	118515
#	132090
#	147807
#	158340
#	174680
#	196685
#	207800
#	217442
#	229332
#	242285
#	254607
#
# Disc length: 3687 seconds
#
# Revision: 5
# Processed by: cddbd v1.5.1PL0 Copyright (c) Steve Scherf et al.
# Submitted via: OrangeCD 5.2
#
DISCID=1a0e6514
DTITLE=Rob Rio - Bankin' On The Boogie
DYEAR=1992
DGENRE=Blues
TTITLE0=Hoy Hoy
TTITLE1=Chiropractor Blues
TTITLE2=Milk Milk Stomp
TTITLE3=Just Love Me Once More
TTITLE4=Fat Girl Boogie
TTITLE5=Too Many Drivers
TTITLE6=Rocket 69
TTITLE7=Bumble Boogie
TTITLE8=Come On
TTITLE9=Love In The Afternoon
TTITLE10=Dog Duty Blues
TTITLE11=Lucky Yuppie
TTITLE12=Time Will Tell
TTITLE13=Big Mouth Woman
TTITLE14=Rio A La Yancy
TTITLE15=Lie, Lie, Lie
TTITLE16=Rock This Joint
TTITLE17=I'm Your Professor
TTITLE18=When I Get Lucky
TTITLE19=Saturday Nite Special
EXTD=
EXTT0=
EXTT1=
EXTT2=
EXTT3=
EXTT4=
EXTT5=
EXTT6=
EXTT7=
EXTT8=
EXTT9=
EXTT10=
EXTT11=
EXTT12=
EXTT13=
EXTT14=
EXTT15=
EXTT16=
EXTT17=
EXTT18=
EXTT19=
PLAYORDER=
